<?xml version="1.0" encoding="UTF-8" standalone="no"?>
<svg
   width="30pt"
   height="30pt"
   version="1.1"
   viewBox="0 0 30 30"
   id="svg5"
   sodipodi:docname="api_integrations.svg"
   inkscape:version="1.4.2 (ebf0e940, 2025-05-08)"
   xmlns:inkscape="http://www.inkscape.org/namespaces/inkscape"
   xmlns:sodipodi="http://sodipodi.sourceforge.net/DTD/sodipodi-0.dtd"
   xmlns="http://www.w3.org/2000/svg"
   xmlns:svg="http://www.w3.org/2000/svg">
  <defs
     id="defs5" />
  <sodipodi:namedview
     id="namedview5"
     pagecolor="#ffffff"
     bordercolor="#666666"
     borderopacity="1.0"
     inkscape:showpageshadow="2"
     inkscape:pageopacity="0.0"
     inkscape:pagecheckerboard="0"
     inkscape:deskcolor="#d1d1d1"
     inkscape:document-units="pt"
     inkscape:zoom="5.6922096"
     inkscape:cx="74.48777"
     inkscape:cy="68.251176"
     inkscape:window-width="1664"
     inkscape:window-height="1144"
     inkscape:window-x="1942"
     inkscape:window-y="31"
     inkscape:window-maximized="0"
     inkscape:current-layer="svg5" />
  <path
     style="fill:#28220b;stroke:none;stroke-width:0.17353;stroke-dasharray:none;stroke-opacity:1"
     d="m 23.401195,14.134082 c -0.678358,0.110657 -0.891602,0.840135 -0.832493,1.437988 -0.255289,2.227244 -1.394821,4.349299 -3.272393,5.606496 -1.267855,0.957602 -2.769217,1.410502 -4.333174,1.460659 -0.816169,0.01417 -1.13668,1.404048 -0.245284,1.553383 4.367747,0.396878 8.539972,-3.076171 9.349694,-7.338959 0.06761,-0.76389 0.417271,-1.655093 0.03754,-2.364465 -0.200097,-0.159821 -0.432789,-0.363913 -0.70389,-0.355102 z"
     id="path8" />
  <path
     style="fill:#28220b;stroke:none;stroke-width:0.17353;stroke-dasharray:none;stroke-opacity:1"
     d="M 23.552119,5.6974628 C 22.270371,6.3919634 21.378747,7.6667453 20.296975,8.6294802 18.742894,7.6897755 16.591694,7.8635032 15.327129,9.2199596 14.715391,9.9087908 13.776533,10.473765 13.5447,11.406108 c 0.298303,0.868615 1.219576,1.388308 1.77961,2.096294 1.044909,0.98897 1.995577,2.119132 3.159798,2.960736 0.799035,-0.05572 1.237316,-0.96396 1.801461,-1.445373 0.910768,-0.927676 1.782608,-2.09867 1.595476,-3.481486 -0.04139,-0.68055 -0.305937,-1.318576 -0.602936,-1.922497 0.944909,-1.0921268 2.243339,-1.9575707 2.895209,-3.2718357 0.11282,-0.3876838 -0.251673,-0.7020528 -0.621199,-0.6444835 z"
     id="path9" />
  <path
     style="fill:#28220b;stroke:none;stroke-width:0.17353;stroke-dasharray:none;stroke-opacity:1"
     d="m 13.723781,12.743221 c -0.64252,0.205986 -1.069545,1.018181 -1.577476,1.212036 -0.381228,-0.537948 -1.115626,-0.546351 -1.506199,-0.01835 -1.165351,1.154685 -2.690404,2.411107 -2.581692,4.2299 -0.0042,0.756741 0.231623,1.495991 0.616126,2.142334 -1.016549,1.069464 -2.216889,2.044393 -2.932242,3.351569 -0.109041,0.702968 0.849152,0.765152 1.182282,0.297787 0.95411,-0.833067 1.807589,-1.774252 2.711817,-2.660213 1.064944,0.751161 2.499714,0.732398 3.700054,0.373188 1.152817,-0.72804 2.144268,-1.739238 3.007831,-2.790893 0.389326,-0.54184 -0.814731,-0.930642 -0.157808,-1.287418 0.353241,-0.493203 1.446265,-1.103783 0.887317,-1.80865 -0.599022,-0.698176 -1.284831,0.276866 -1.706585,0.662316 -0.354453,0.578069 -0.728789,0.10793 -1.047339,-0.257795 -0.29573,-0.473706 -1.32483,-0.966932 -1.012014,-1.440247 0.393984,-0.497521 1.395598,-1.106381 0.948601,-1.83923 -0.134119,-0.143169 -0.343876,-0.190515 -0.532673,-0.166343 z"
     id="path10" />
  <path
     style="fill:#28220b;stroke:none;stroke-width:0.17353;stroke-dasharray:none;stroke-opacity:1"
     d="M 14.394696,5.6551766 C 12.284691,5.7656926 10.284458,6.7697424 8.687983,8.1161859 6.800418,9.9409274 5.42405,12.630993 5.813321,15.312748 6.065807,16.129597 7.510367,15.784611 7.367967,14.89982 7.401387,11.566598 9.821758,8.4075176 13.073916,7.6198081 13.911101,7.3172248 14.935111,7.5015503 15.662205,6.9398129 16.257712,6.0795178 15.129597,5.5035146 14.394696,5.6551766 Z"
     id="path7" />
  <path
     style="fill:#28220b;stroke:none;stroke-width:0.17353;stroke-dasharray:none;stroke-opacity:1"
     d="M 14.043131,0.01097932 C 13.317045,0.12679689 12.387998,-0.1977862 11.769375,0.28787793 11.354099,1.2598149 11.53836,2.4489427 11.107337,3.3852194 10.614449,3.6806025 9.964328,4.0993068 9.427856,4.0715356 8.541567,3.5102875 7.759192,2.6313719 6.728251,2.3624522 5.315522,3.2818747 4.1990611,4.6231449 3.0112026,5.8154059 2.7027177,6.1850501 2.0612054,6.6643068 2.5340795,7.168821 3.0253874,7.9867903 3.6230384,8.7325835 4.1790266,9.5057744 3.7697712,10.141031 3.832893,11.374339 2.8485974,11.280913 c -0.8248846,0.260988 -1.86282204,0.04313 -2.56214784,0.605629 -0.4961453,1.075055 -0.1746149,2.344297 -0.275514,3.492691 0.095016,0.874087 -0.1823481,1.877744 0.2455829,2.67932 0.96929004,0.584042 2.26311074,0.4065 3.27290024,0.772361 0.1991259,0.540275 0.5041844,1.096156 0.6044573,1.64407 -0.5380317,0.975476 -1.5485984,1.737679 -1.7831886,2.85203 0.8722135,1.311932 2.1540214,2.330244 3.2636726,3.444969 0.455513,0.320924 0.964505,1.206808 1.586957,0.682526 0.870097,-0.447915 1.5841,-1.250108 2.493928,-1.575544 0.462628,0.325984 1.408902,0.272166 1.529358,0.885928 0.251985,0.989371 0.139479,2.165107 0.736788,3.026315 0.93907,0.386596 2.034597,0.09844 3.026602,0.196402 1.018759,-0.08685 2.134913,0.159146 3.100414,-0.216272 0.443124,-1.008831 0.430203,-2.175983 0.65316,-3.248909 0.657294,-0.08616 1.413779,-0.999501 1.997624,-0.473708 0.83867,0.512662 1.58296,1.399831 2.569927,1.577736 1.400509,-0.924627 2.492174,-2.267855 3.668601,-3.458303 0.463358,-0.400687 0.763859,-1.068566 0.292717,-1.594141 -0.453244,-0.757849 -1.024043,-1.435381 -1.540697,-2.148958 0.303186,-0.495422 0.392173,-1.183354 0.750563,-1.617068 1.001374,-0.357169 2.192317,-0.126302 3.11107,-0.685241 0.592475,-0.865896 0.245814,-2.04078 0.373886,-3.022448 -0.104686,-1.036466 0.298687,-2.269405 -0.314784,-3.195161 C 28.82665,11.280923 27.662773,11.502598 26.711138,11.240359 26.190922,10.996424 25.895407,9.927201 25.831688,9.3924638 26.378938,8.4958855 27.339185,7.7232061 27.51369,6.6514512 26.667695,5.2243877 25.345748,4.126468 24.155562,2.9888494 23.751431,2.6076983 23.173197,2.0795384 22.63592,2.5789784 21.860122,3.0333512 21.171048,3.6171366 20.447393,4.1473911 19.911814,3.7395568 18.71597,3.8470254 18.672297,3.0556663 18.464868,2.1259114 18.558893,1.0390677 18.062028,0.20865487 16.854487,-0.16337615 15.526039,0.09294426 14.274464,0.01064476 l -0.129871,1.8782e-4 z m 2.794762,2.13138048 c 0.218887,0.8611203 0.09766,1.9127204 0.645803,2.6482411 1.018994,0.4094527 2.035715,0.9877274 3.118932,1.1547207 0.930296,-0.336357 1.636781,-1.0965151 2.451821,-1.6338802 0.832503,0.8510116 1.7139,1.6741826 2.501031,2.5590832 -0.499386,0.8762552 -1.349145,1.6072388 -1.643679,2.5748765 0.364922,1.0331199 0.783162,2.0702649 1.280193,3.0420639 0.834886,0.639417 2.027008,0.423237 3.000221,0.678618 0,1.217216 0,2.434432 0,3.651649 -0.972635,0.22816 -2.16458,0.03987 -2.997432,0.663079 -0.52021,0.918386 -0.810299,1.936612 -1.26472,2.885655 -0.01144,0.768624 0.741031,1.333435 1.103766,1.964557 0.208685,0.371118 0.846779,0.801087 0.213461,1.129218 -0.706771,0.75777 -1.452417,1.47752 -2.181173,2.213661 -0.87082,-0.538686 -1.623295,-1.490217 -2.667173,-1.65808 -0.990639,0.301413 -1.933551,0.767136 -2.895717,1.151408 -0.513812,0.469252 -0.374879,1.333643 -0.564248,1.964046 0.07506,1.007256 -0.35685,1.421515 -1.348811,1.180676 -0.801178,-0.03938 -1.635446,0.08358 -2.406417,-0.09553 -0.258992,-0.957567 -0.128406,-2.065457 -0.599639,-2.943227 -0.840585,-0.506078 -1.783696,-0.738424 -2.652208,-1.1644 C 9.030892,23.752538 8.306792,24.725872 7.597975,25.121765 7.264658,25.253181 6.873738,25.966188 6.578204,25.429534 5.804723,24.690074 5.056036,23.914743 4.2967223,23.155316 4.8141578,22.234879 5.828887,21.506978 5.996459,20.423522 5.776062,19.492957 5.216404,18.688422 4.9648477,17.757194 4.7342845,16.929185 3.6644292,17.196103 3.0312416,16.976688 2.1372745,16.967831 1.4185331,16.804459 1.721551,15.740118 1.705935,14.888815 1.690475,14.037511 1.674953,13.186208 2.6703103,12.961833 3.7901384,13.015231 4.7089104,12.552423 5.223878,11.618469 5.543548,10.578331 5.993669,9.6122541 6.012771,8.6384024 5.026009,7.9989732 4.5878393,7.2121998 3.9297573,6.5749063 5.32045,6.074964 5.626095,5.5033053 6.038539,5.1179727 6.440781,4.6465667 6.885263,4.3333487 c 0.884696,0.499959 1.603524,1.3902152 2.593868,1.650438 0.989529,-0.3127884 1.917906,-0.7903374 2.884556,-1.1559944 0.715815,-0.7459752 0.507432,-1.9503218 0.763798,-2.8825155 0.406786,-0.4630615 1.539557,-0.09778 2.229257,-0.2379673 0.487318,0.130921 1.615873,-0.3997744 1.481151,0.4350503 z"
     id="path6" />
</svg>
