<?xml version="1.0" encoding="UTF-8" standalone="no"?>
<svg
   xmlns:dc="http://purl.org/dc/elements/1.1/"
   xmlns:cc="http://creativecommons.org/ns#"
   xmlns:rdf="http://www.w3.org/1999/02/22-rdf-syntax-ns#"
   xmlns:svg="http://www.w3.org/2000/svg"
   xmlns="http://www.w3.org/2000/svg"
   xmlns:sodipodi="http://sodipodi.sourceforge.net/DTD/sodipodi-0.dtd"
   xmlns:inkscape="http://www.inkscape.org/namespaces/inkscape"
   width="22"
   height="22"
   version="1.1"
   viewBox="0 0 16.5 16.5"
   id="svg835"
   sodipodi:docname="brute_force.svg"
   inkscape:version="1.0.2 (e86c8708, 2021-01-15)">
  <title
     id="title843">Brute Force</title>
  <metadata
     id="metadata841">
    <rdf:RDF>
      <cc:Work
         rdf:about="">
        <dc:format>image/svg+xml</dc:format>
        <dc:type
           rdf:resource="http://purl.org/dc/dcmitype/StillImage" />
        <dc:title>Brute Force</dc:title>
        <dc:creator>
          <cc:Agent>
            <dc:title>Alec Dhuse, Andy M and Oh Rian</dc:title>
          </cc:Agent>
        </dc:creator>
        <dc:publisher>
          <cc:Agent>
            <dc:title />
          </cc:Agent>
        </dc:publisher>
        <dc:source>https://thenounproject.com/icon/unlock-4584617/ and https://thenounproject.com/icon/lightning-4945896/</dc:source>
        <dc:date>2022-06-30</dc:date>
        <dc:contributor>
          <cc:Agent>
            <dc:title>Alec Dhuse, Andy M and Oh Rian</dc:title>
          </cc:Agent>
        </dc:contributor>
      </cc:Work>
    </rdf:RDF>
  </metadata>
  <defs
     id="defs839" />
  <sodipodi:namedview
     pagecolor="#ffffff"
     bordercolor="#666666"
     borderopacity="1"
     objecttolerance="10"
     gridtolerance="10"
     guidetolerance="10"
     inkscape:pageopacity="0"
     inkscape:pageshadow="2"
     inkscape:window-width="1890"
     inkscape:window-height="966"
     id="namedview837"
     showgrid="false"
     units="px"
     inkscape:zoom="17.874167"
     inkscape:cx="6.986561"
     inkscape:cy="16.288411"
     inkscape:window-x="0"
     inkscape:window-y="25"
     inkscape:window-maximized="0"
     inkscape:current-layer="svg835"
     inkscape:document-rotation="0" />
  <path
     id="path833"
     style="stroke-width:0.0211088"
     d="M 10.322266,0 C 7.0810876,0 4.4433594,2.4380347 4.4433594,5.4375 V 9.4453125 H 4.0566406 C 2.9252201,9.4453125 2,10.302568 2,11.349609 v 8.746094 C 2,21.142744 2.9252201,22 4.0566406,22 H 17.943359 C 19.073915,22 20,21.142744 20,20.095703 V 11.349609 C 20,10.302568 19.073915,9.4453125 17.943359,9.4453125 h -0.4375 L 17.554688,5.4375 C 17.592728,2.4388853 14.919792,0 11.677734,0 Z m 0,2.8554688 h 1.355468 c 1.539596,0 2.792969,1.1573099 2.792969,2.5820312 l 0.04883,4.0078125 h -1.36914 l -1.582032,4.6191405 c -0.01622,0.04706 -0.0046,0.09807 0.0332,0.136719 0.0378,0.03863 0.0962,0.06078 0.158204,0.06055 h 3.027343 c 0.07644,-0.0043 0.149594,0.02582 0.1875,0.07813 0.03771,0.05231 0.03402,0.118555 -0.0098,0.167968 l -5.3375832,7.495135 c -0.055429,0.06056 -1.3910472,0.06475 -1.3910472,0.06475 0.570626,-1.858858 1.5405331,-3.796862 2.1758954,-5.653654 0.01622,-0.04698 0.0046,-0.09808 -0.0332,-0.136718 -0.0378,-0.03872 -0.0962,-0.06071 -0.158203,-0.06055 H 7.1933594 C 7.1217154,16.2153 7.0570762,16.1845 7.0234375,16.13477 6.9899685,16.08504 6.9926325,16.024033 7.0312475,15.976566 L 11.842441,9.5012592 7.5292969,9.4453125 V 5.4375 c 0,-1.4239893 1.2526531,-2.5820312 2.7929691,-2.5820312 z"
     transform="scale(0.75)"
     sodipodi:nodetypes="sscssssssssccsssscccccccccccccccccccss" />
</svg>
