<?xml version="1.0" encoding="UTF-8" standalone="no"?>
<svg
   xmlns:dc="http://purl.org/dc/elements/1.1/"
   xmlns:cc="http://creativecommons.org/ns#"
   xmlns:rdf="http://www.w3.org/1999/02/22-rdf-syntax-ns#"
   xmlns:svg="http://www.w3.org/2000/svg"
   xmlns="http://www.w3.org/2000/svg"
   xmlns:sodipodi="http://sodipodi.sourceforge.net/DTD/sodipodi-0.dtd"
   xmlns:inkscape="http://www.inkscape.org/namespaces/inkscape"
   width="22"
   height="22"
   version="1.1"
   viewBox="0 0 16.5 16.5"
   id="svg835"
   sodipodi:docname="decrypt.svg"
   inkscape:version="1.0.2 (e86c8708, 2021-01-15)">
  <title
     id="title843">Unlock</title>
  <metadata
     id="metadata841">
    <rdf:RDF>
      <cc:Work
         rdf:about="">
        <dc:format>image/svg+xml</dc:format>
        <dc:type
           rdf:resource="http://purl.org/dc/dcmitype/StillImage" />
        <dc:title>Unlock</dc:title>
        <dc:creator>
          <cc:Agent>
            <dc:title>Andy M</dc:title>
          </cc:Agent>
        </dc:creator>
        <dc:publisher>
          <cc:Agent>
            <dc:title>The Noun Project</dc:title>
          </cc:Agent>
        </dc:publisher>
        <dc:source>https://thenounproject.com/icon/unlock-4584617/</dc:source>
        <dc:date>2022-01-28</dc:date>
      </cc:Work>
    </rdf:RDF>
  </metadata>
  <defs
     id="defs839" />
  <sodipodi:namedview
     pagecolor="#ffffff"
     bordercolor="#666666"
     borderopacity="1"
     objecttolerance="10"
     gridtolerance="10"
     guidetolerance="10"
     inkscape:pageopacity="0"
     inkscape:pageshadow="2"
     inkscape:window-width="1504"
     inkscape:window-height="1005"
     id="namedview837"
     showgrid="false"
     units="px"
     inkscape:zoom="17.874167"
     inkscape:cx="9.9226328"
     inkscape:cy="14.882468"
     inkscape:window-x="0"
     inkscape:window-y="25"
     inkscape:window-maximized="0"
     inkscape:current-layer="svg835" />
  <path
     d="M 13.457394,7.084004 H 5.6474649 v -3.00515 c 0,-1.067992 0.93927,-1.937235 2.0945067,-1.937235 h 1.0158515 c 1.1546964,0 2.0945069,0.868694 2.0945069,1.937235 v 1.293591 h 2.314212 V 4.078854 C 13.166542,1.829712 11.189204,0 8.757661,0 H 7.7417987 C 5.3109152,0 3.3329176,1.829255 3.3329176,4.078854 v 3.00515 H 3.0428658 C 2.1943004,7.084004 1.5,7.72652 1.5,8.511801 v 6.560402 C 1.5,15.857484 2.1943004,16.5 3.0428658,16.5 H 13.457145 C 14.305062,16.5 15,15.857484 15,15.072203 V 8.511801 C 15,7.72652 14.305062,7.084004 13.457145,7.084004 Z m -4.0502879,6.13549 c 0,0.59171 -0.518402,1.07084 -1.1571385,1.07084 -0.6387365,0 -1.1571386,-0.479146 -1.1571386,-1.07084 v -2.855593 c 0,-0.59171 0.5184021,-1.07084 1.1571386,-1.07084 0.6387365,0 1.1571385,0.479145 1.1571385,1.07084 z"
     id="path833"
     style="stroke-width:0.0158316" />
</svg>
