<?xml version="1.0" encoding="UTF-8"?>
<svg width="1200pt" height="1200pt" version="1.1" viewBox="0 0 1200 1200" xmlns="http://www.w3.org/2000/svg">
 <path d="m749.04 551.04h-118.8c-2.4336 0.011719-4.7305-1.1172-6.2148-3.0469-1.4844-1.9297-1.9805-4.4414-1.3438-6.793l62.281-231.36c0.85937-3.625-0.96094-7.3516-4.3477-8.8984s-7.3984-0.48438-9.5742 2.5391l-226.44 333.24c-1.5156 2.3711-1.6406 5.3711-0.32422 7.8555 1.3203 2.4844 3.8711 4.0703 6.6836 4.1445h118.8c2.4336-0.007812 4.7305 1.1172 6.2148 3.0508 1.4844 1.9297 1.9805 4.4414 1.3438 6.7891l-62.281 231.6c-0.85937 3.625 0.96094 7.3516 4.3477 8.8984s7.3984 0.48438 9.5742-2.5391l227.04-333.24c1.7188-2.4688 1.8672-5.7031 0.38281-8.3164-1.4883-2.6133-4.3438-4.1406-7.3438-3.9258z"/>
</svg>
