<?xml version="1.0" encoding="UTF-8" standalone="no"?>
<svg
   xmlns:dc="http://purl.org/dc/elements/1.1/"
   xmlns:cc="http://creativecommons.org/ns#"
   xmlns:rdf="http://www.w3.org/1999/02/22-rdf-syntax-ns#"
   xmlns:svg="http://www.w3.org/2000/svg"
   xmlns="http://www.w3.org/2000/svg"
   xmlns:sodipodi="http://sodipodi.sourceforge.net/DTD/sodipodi-0.dtd"
   xmlns:inkscape="http://www.inkscape.org/namespaces/inkscape"
   width="40"
   height="40"
   version="1.1"
   viewBox="0 0 30 30"
   id="svg841"
   sodipodi:docname="open_file.svg"
   inkscape:version="1.0.2 (e86c8708, 2021-01-15)">
  <title
     id="title849">File</title>
  <metadata
     id="metadata847">
    <rdf:RDF>
      <cc:Work
         rdf:about="">
        <dc:format>image/svg+xml</dc:format>
        <dc:type
           rdf:resource="http://purl.org/dc/dcmitype/StillImage" />
        <dc:title>File</dc:title>
        <dc:creator>
          <cc:Agent>
            <dc:title>Komkrit Noenpoempisut</dc:title>
          </cc:Agent>
        </dc:creator>
        <dc:date>July 11, 2018</dc:date>
        <dc:source>https://thenounproject.com/itim2101/</dc:source>
        <cc:license
           rdf:resource="http://creativecommons.org/licenses/by/4.0/" />
      </cc:Work>
      <cc:License
         rdf:about="http://creativecommons.org/licenses/by/4.0/">
        <cc:permits
           rdf:resource="http://creativecommons.org/ns#Reproduction" />
        <cc:permits
           rdf:resource="http://creativecommons.org/ns#Distribution" />
        <cc:requires
           rdf:resource="http://creativecommons.org/ns#Notice" />
        <cc:requires
           rdf:resource="http://creativecommons.org/ns#Attribution" />
        <cc:permits
           rdf:resource="http://creativecommons.org/ns#DerivativeWorks" />
      </cc:License>
    </rdf:RDF>
  </metadata>
  <defs
     id="defs845" />
  <sodipodi:namedview
     pagecolor="#ffffff"
     bordercolor="#666666"
     borderopacity="1"
     objecttolerance="10"
     gridtolerance="10"
     guidetolerance="10"
     inkscape:pageopacity="0"
     inkscape:pageshadow="2"
     inkscape:window-width="1544"
     inkscape:window-height="980"
     id="namedview843"
     showgrid="false"
     inkscape:zoom="7.12"
     inkscape:cx="66.638354"
     inkscape:cy="39.595635"
     inkscape:window-x="0"
     inkscape:window-y="25"
     inkscape:window-maximized="0"
     inkscape:current-layer="svg841"
     units="px" />
  <g
     id="g839"
     transform="matrix(0.025,0,0,0.025,6.375e-4,-5.975e-5)">
    <path
       d="m 1049.6,297.94 c -0.1602,-2.8359 -0.6641,-5.6445 -1.5,-8.3633 -0.2617,-1.1953 -0.6016,-2.3711 -1.0117,-3.5234 -1.4688,-3.8008 -3.5469,-7.332 -6.1523,-10.465 l -225,-262.5 C 812.7212,9.475 808.8227,6.5297 804.463,4.4281 803.338,3.8656 802.2521,3.45154 801.088,2.9672 V 2.96329 c -3.8047,-1.5117 -7.8359,-2.3867 -11.926,-2.5859 -0.5625,-0.039062 -1.0859,-0.375 -1.6875,-0.375 h -600 c -9.9453,0 -19.484,3.9492 -26.516,10.984 -7.0352,7.0312 -10.984,16.57 -10.984,26.516 V 1162.5024 c 0,9.9453 3.9492,19.484 10.984,26.516 7.0312,7.0352 16.57,10.984 26.516,10.984 h 825 c 9.9453,0 19.484,-3.9492 26.516,-10.984 7.0352,-7.0312 10.984,-16.57 10.984,-26.516 V 300.00239 c 0,-0.71094 -0.3359,-1.3516 -0.375,-2.0625 z M 824.98,138.75 930.96,262.5 H 824.98 Z M 224.98,1125 V 75 h 525 v 225 c 0,9.9453 3.9492,19.484 10.984,26.516 7.0312,7.0352 16.57,10.984 26.516,10.984 h 187.5 V 1125 Z"
       id="path833" />
    <path
       d="m 679.57,732.6 53.023,-53.023 -106.09,-106.09 v -0.004 c -7.0312,-7.0312 -16.566,-10.98 -26.512,-10.98 -9.946,0 -19.48,3.9492 -26.512,10.98 l -106.09,106.09 53.023,53.023 42.074,-42.074 v 209.48 h 75 v -209.48 z"
       id="path835" />
    <path
       d="m 787.5,412.5 h -375 c -9.9453,0 -19.484,3.9492 -26.516,10.984 C 378.9488,430.5152 375,440.054 375,450 v 375 c 0,9.9453 3.9492,19.484 10.984,26.516 7.0312,7.0352 16.57,10.984 26.516,10.984 H 525 v -75 h -75 v -300 h 300 v 300 h -75 v 75 h 112.5 c 9.9453,0 19.484,-3.9492 26.516,-10.984 C 821.0512,844.4848 825,834.946 825,825 V 450 c 0,-9.9453 -3.9492,-19.484 -10.984,-26.516 C 806.9848,416.4488 797.446,412.5 787.5,412.5 Z"
       id="path837" />
  </g>
</svg>
