<?xml version="1.0" encoding="UTF-8" standalone="no"?>
<svg
   xmlns:dc="http://purl.org/dc/elements/1.1/"
   xmlns:cc="http://creativecommons.org/ns#"
   xmlns:rdf="http://www.w3.org/1999/02/22-rdf-syntax-ns#"
   xmlns:svg="http://www.w3.org/2000/svg"
   xmlns="http://www.w3.org/2000/svg"
   xmlns:sodipodi="http://sodipodi.sourceforge.net/DTD/sodipodi-0.dtd"
   xmlns:inkscape="http://www.inkscape.org/namespaces/inkscape"
   width="40"
   height="40"
   version="1.1"
   viewBox="0 0 30 30"
   id="svg841"
   sodipodi:docname="export_file.svg"
   inkscape:version="1.0.2 (e86c8708, 2021-01-15)">
  <title
     id="title849">File</title>
  <metadata
     id="metadata847">
    <rdf:RDF>
      <cc:Work
         rdf:about="">
        <dc:format>image/svg+xml</dc:format>
        <dc:type
           rdf:resource="http://purl.org/dc/dcmitype/StillImage" />
        <dc:title>File</dc:title>
        <dc:creator>
          <cc:Agent>
            <dc:title>Komkrit Noenpoempisut</dc:title>
          </cc:Agent>
        </dc:creator>
        <dc:date>July 11, 2018</dc:date>
        <dc:source>https://thenounproject.com/itim2101/</dc:source>
        <cc:license
           rdf:resource="http://creativecommons.org/licenses/by/4.0/" />
      </cc:Work>
      <cc:License
         rdf:about="http://creativecommons.org/licenses/by/4.0/">
        <cc:permits
           rdf:resource="http://creativecommons.org/ns#Reproduction" />
        <cc:permits
           rdf:resource="http://creativecommons.org/ns#Distribution" />
        <cc:requires
           rdf:resource="http://creativecommons.org/ns#Notice" />
        <cc:requires
           rdf:resource="http://creativecommons.org/ns#Attribution" />
        <cc:permits
           rdf:resource="http://creativecommons.org/ns#DerivativeWorks" />
      </cc:License>
    </rdf:RDF>
  </metadata>
  <defs
     id="defs845" />
  <sodipodi:namedview
     pagecolor="#ffffff"
     bordercolor="#666666"
     borderopacity="1"
     objecttolerance="10"
     gridtolerance="10"
     guidetolerance="10"
     inkscape:pageopacity="0"
     inkscape:pageshadow="2"
     inkscape:window-width="1544"
     inkscape:window-height="980"
     id="namedview843"
     showgrid="false"
     inkscape:zoom="7.12"
     inkscape:cx="66.638354"
     inkscape:cy="39.595635"
     inkscape:window-x="0"
     inkscape:window-y="25"
     inkscape:window-maximized="0"
     inkscape:current-layer="svg841"
     units="px"
     inkscape:document-rotation="0" />
  <path
     d="m 26.240637,7.4484402 c -0.004,-0.070897 -0.0166,-0.1411124 -0.0375,-0.2090824 -0.0065,-0.029882 -0.01504,-0.059277 -0.02529,-0.088085 -0.03672,-0.09502 -0.08867,-0.1833 -0.153808,-0.261625 l -5.625,-6.56250005 c -0.08037,-0.0903325 -0.177832,-0.163965 -0.286824,-0.216505 -0.02813,-0.0140625 -0.05527,-0.024414 -0.08438,-0.0365225 V 0.0740225 C 19.93272,0.03623 19.83194,0.014355 19.729687,0.009375 19.715625,0.00839845 19.70254,0 19.6875,0 h -15 C 4.4388675,0 4.2004,0.09873 4.0246,0.2746 3.84872,0.45038 3.75,0.68885 3.75,0.9375 v 28.125 c 0,0.248633 0.09873,0.4871 0.2746,0.6629 C 4.20038,29.90128 4.43885,30 4.6875,30 h 20.625 c 0.248632,0 0.4871,-0.09873 0.6629,-0.2746 0.17588,-0.17578 0.2746,-0.41425 0.2746,-0.6629 V 7.5 c 0,-0.017773 -0.0084,-0.03379 -0.0094,-0.051563 z m -5.6155,-3.9797499 2.6495,3.0937499 h -2.6495 z M 5.6251375,28.12494 V 1.8749403 H 18.750137 v 5.6249999 c 0,0.2486325 0.09873,0.4871 0.2746,0.6629001 0.175781,0.17588 0.414251,0.2746 0.6629,0.2746 h 4.6875 V 28.12494 Z"
     id="path833"
     style="stroke-width:0.025" />
  <path
     d="m 17.025453,16.372751 1.349547,1.325575 -2.700214,2.65225 v 10e-5 c -0.178959,0.17578 -0.421639,0.2745 -0.674787,0.2745 -0.253146,0 -0.495807,-0.09873 -0.674785,-0.2745 l -2.700214,-2.65225 1.349547,-1.325575 1.070872,1.05185 v -5.237 h 1.908908 v 5.237 z"
     id="path835"
     style="stroke-width:0.025225" />
</svg>
